<svg xmlns="http://www.w3.org/2000/svg" width="24" height="24" viewBox="0 0 24 24">
    <g fill="none" fill-rule="evenodd">
        <g fill="#374E5A">
            <g>
                <g>
                    <path d="M15.852 1c3.516 0 6.377 2.86 6.377 6.376v8.476c0 3.516-2.861 6.377-6.377 6.377H7.376C3.86 22.23 1 19.37 1 15.852V7.376C1 3.86 3.86 1 7.376 1h8.476zm0 1.997H7.376c-2.414 0-4.38 1.965-4.38 4.38v8.475c0 2.415 1.966 4.38 4.38 4.38h8.476c2.415 0 4.38-1.965 4.38-4.38V7.376c0-2.414-1.965-4.379-4.38-4.379zm-4.15 3.39c2.882 0 5.227 2.345 5.227 5.227 0 2.883-2.345 5.229-5.227 5.229-2.883 0-5.229-2.346-5.229-5.229 0-2.882 2.346-5.228 5.229-5.228zm0 1.879c-1.847 0-3.35 1.502-3.35 3.348 0 1.847 1.503 3.35 3.35 3.35 1.846 0 3.348-1.503 3.348-3.35 0-1.846-1.502-3.348-3.348-3.348zm5.533-3.475c.687 0 1.244.557 1.244 1.244 0 .688-.557 1.244-1.244 1.244-.688 0-1.245-.556-1.245-1.244 0-.687.557-1.244 1.245-1.244z" transform="translate(-38 -766) translate(38 724) translate(0 42)"/>
                </g>
            </g>
        </g>
    </g>
</svg>
