<svg xmlns="http://www.w3.org/2000/svg" width="141" height="84" viewBox="0 0 141 84">
    <g fill="none" fill-rule="evenodd">
        <g>
            <g>
                <path fill="#FACC0A" d="M0 11.211L11.13 11.211 11.13 0.081 0 0.081z" transform="translate(-157 -42) translate(157 42)"/>
                <path fill="#EC186C" d="M116.688 16.776L127.818 16.776 127.818 5.645 116.688 5.645z" transform="translate(-157 -42) translate(157 42)"/>
                <path fill="#814B9D" d="M117.951 83.512L129.082 83.512 129.082 72.382 117.951 72.382z" transform="translate(-157 -42) translate(157 42)"/>
                <path fill="#F27045" d="M129.082 72.414L140.212 72.414 140.212 61.284 129.082 61.284z" transform="translate(-157 -42) translate(157 42)"/>
                <path fill="#58C6D9" d="M117.951 61.202L129.082 61.202 129.082 50.072 117.951 50.072z" transform="translate(-157 -42) translate(157 42)"/>
                <path fill="#61C093" d="M66.84 27.875L77.971 27.875 77.971 16.745 66.84 16.745z" transform="translate(-157 -42) translate(157 42)"/>
                <path fill="#374E5A" d="M16.064 11.211L49.512 11.211 49.512.081 16.064.081zM55.682 11.211L83.535 11.211 83.535.081 55.682.081zM55.682 44.539L83.536 44.539 83.536 33.408 55.682 33.408zM0 44.539L11.13 44.539 11.13 14.374 0 14.374z" transform="translate(-157 -42) translate(157 42)"/>
                <path fill="#374E5A" d="M27.223 44.539L38.353 44.539 38.353 10.146 27.223 10.146zM55.682 44.539L66.812 44.539 66.812.081 55.682.081zM98.118 0L89.89 7.494 103.61 22.559 88.972 37.451 97.499 44.606 110.624 30.26 123.616 44.523 131.844 37.028z" transform="translate(-157 -42) translate(157 42)"/>
                <g fill="#374E5A">
                    <path d="M3.232 7.054H6.58L5.546 4.19c-.21-.622-.416-1.232-.615-1.832h-.034c-.078.279-.29.894-.633 1.848L3.232 7.054zM.168 11.149L4.348.145h1.1l4.26 11.004H8.11l-1.065-2.88H2.784l-1.05 2.88H.168zM20.08 5.922v4.544c-1.109.567-2.347.85-3.713.85-1.675 0-3.016-.508-4.02-1.523-1.004-1.016-1.507-2.334-1.507-3.954 0-1.698.532-3.084 1.598-4.154C13.505.613 14.904.078 16.634.078c1.077 0 2.091.194 3.047.582v1.382c-.932-.466-1.92-.698-2.964-.698-1.365 0-2.425.399-3.18 1.198-.754.799-1.131 1.853-1.131 3.163 0 1.332.368 2.39 1.107 3.172.737.782 1.734 1.173 2.988 1.173.855 0 1.56-.132 2.113-.4V5.923h1.466zM22.745 11.149L22.745.177 28.289.177 27.839 1.443 24.226 1.443 24.226 4.922 27.807 4.922 27.807 6.188 24.226 6.188 24.226 9.884 28.355 9.884 28.355 11.149zM40.026 11.15h-1.281l-5.113-6.727c-.243-.31-.726-.971-1.448-1.981h-.032c.032.51.05 1.12.05 1.831v6.876H30.72V.177h1.432l4.912 6.477c.41.533.903 1.215 1.48 2.048h.034c-.021-.776-.034-1.41-.034-1.898V.177h1.482V11.15zM50.43 9.335l.417 1.182c-1.01.532-2.081.799-3.213.799-1.654 0-2.954-.51-3.905-1.531-.948-1.021-1.422-2.354-1.422-3.996 0-1.62.516-2.978 1.548-4.072C44.887.625 46.225.078 47.867.078c1.132 0 2.053.194 2.764.582v1.382c-.878-.466-1.787-.698-2.73-.698-1.21 0-2.184.421-2.922 1.264-.74.845-1.108 1.882-1.108 3.114 0 1.299.355 2.345 1.066 3.138.71.794 1.665 1.19 2.864 1.19.876 0 1.753-.238 2.63-.715M55.327 11.149L55.327 6.771 51.663.177 53.295.177 56.06 5.388 56.092 5.388 58.806.177 60.421.177 56.792 6.804 56.792 11.149z" transform="translate(-157 -42) translate(157 42) translate(55.62 61.264)"/>
                </g>
            </g>
        </g>
    </g>
</svg>
