<svg xmlns="http://www.w3.org/2000/svg" width="24" height="24" viewBox="0 0 24 24">
    <g fill="none" fill-rule="evenodd">
        <g fill="#374E5A">
            <g>
                <g>
                    <path d="M15.453 11.972l-5.428 2.686c-.213.114-.936-.04-.936-.282V8.864c0-.245.729-.399.942-.278l5.196 2.827c.217.124.446.44.226.56zm7.118-3.238C22.57 6.119 20.45 4 17.838 4H5.733C3.12 4 1 6.12 1 8.734v5.632C1 16.981 3.119 19.1 5.733 19.1h12.105c2.613 0 4.733-2.119 4.733-4.734V8.734z" transform="translate(-38 -808) translate(38 724) translate(0 84)"/>
                </g>
            </g>
        </g>
    </g>
</svg>
